<?xml version="1.0" encoding="utf-8"?>
<!-- Generator: Adobe Illustrator 26.0.3, SVG Export Plug-In . SVG Version: 6.00 Build 0)  -->
<svg version="1.1" id="Layer_1" xmlns="http://www.w3.org/2000/svg" xmlns:xlink="http://www.w3.org/1999/xlink" x="0px" y="0px"
	 viewBox="0 0 256 256" style="enable-background:new 0 0 256 256;" xml:space="preserve">
<style type="text/css">
	.st0{fill-rule:evenodd;clip-rule:evenodd;fill:url(#SVGID_1_);}
	.st1{fill-rule:evenodd;clip-rule:evenodd;fill:#A6A1A1;}
	.st2{fill-rule:evenodd;clip-rule:evenodd;fill:#20232A;}
	.st3{fill-rule:evenodd;clip-rule:evenodd;fill:url(#SVGID_00000006695099815534993510000002952997399641381798_);}
	.st4{fill-rule:evenodd;clip-rule:evenodd;fill:url(#SVGID_00000034773492405070739130000012087442868404053946_);}
	.st5{fill:#7E57C2;}
	.st6{fill:#FFFFFF;}
</style>
<linearGradient id="SVGID_1_" gradientUnits="userSpaceOnUse" x1="17" y1="103" x2="241" y2="103">
	<stop  offset="0" style="stop-color:#7E57C2"/>
	<stop  offset="1" style="stop-color:#6D4BA8"/>
</linearGradient>
<path class="st0" d="M104.4,42.4C100,37.1,93.5,34,86.6,34H29c-6.6,0-12,5.4-12,12v12.1v10.1V160c0,6.6,5.4,12,12,12h200
	c6.6,0,12-5.4,12-12V70.1c0-6.6-5.4-12-12-12H117.4L104.4,42.4z"/>
<g>
	<g>
		<path class="st1" d="M92.8,74c5,0,9.8-1.6,13.8-4.6l9.9-7.4H229c6.6,0,12,5.4,12,12v34v52c0,6.6-5.4,12-12,12H29
			c-6.6,0-12-5.4-12-12v-52V86c0-6.6,5.4-12,12-12h58H92.8z"/>
	</g>
</g>
<path class="st2" d="M92.8,74c5,0,9.8-1.6,13.8-4.6l9.9-7.4H229c6.6,0,12,5.4,12,12v34v90c0,6.6-5.4,12-12,12H29
	c-6.6,0-12-5.4-12-12v-90V86c0-6.6,5.4-12,12-12h58H92.8z"/>
<linearGradient id="SVGID_00000161612955474455826290000013993758374992053430_" gradientUnits="userSpaceOnUse" x1="17" y1="202" x2="241" y2="202">
	<stop  offset="0" style="stop-color:#7E57C2"/>
	<stop  offset="1" style="stop-color:#6D4BA8"/>
</linearGradient>
<path style="fill-rule:evenodd;clip-rule:evenodd;fill:url(#SVGID_00000161612955474455826290000013993758374992053430_);" d="
	M17,194v4c0,6.6,5.4,12,12,12h200c6.6,0,12-5.4,12-12v-4c0,6.6-5.4,12-12,12H29C22.4,206,17,200.6,17,194z"/>
<linearGradient id="SVGID_00000005228346278590174350000006975445991196338103_" gradientUnits="userSpaceOnUse" x1="17" y1="74" x2="241" y2="74" gradientTransform="matrix(1 0 0 1 0 2)">
	<stop  offset="0" style="stop-color:#3D4250"/>
	<stop  offset="1" style="stop-color:#333742"/>
</linearGradient>
<path style="fill-rule:evenodd;clip-rule:evenodd;fill:url(#SVGID_00000005228346278590174350000006975445991196338103_);" d="
	M106.6,69.4c-4,3-8.8,4.6-13.8,4.6H87H29c-6.6,0-12,5.4-12,12v4c0-6.6,5.4-12,12-12h58h5.8c5,0,9.8-1.6,13.8-4.6l9.9-7.4H229
	c6.6,0,12,5.4,12,12v-4c0-6.6-5.4-12-12-12H116.5L106.6,69.4z"/>
<path class="st5" d="M118,99.4H91.4V126c0,0.8-0.7,1.5-1.5,1.5h-8.7c-0.8,0-1.5-0.7-1.5-1.5l0-36.8c0-0.8,0.7-1.5,1.5-1.5H118
	c0.8,0,1.5,0.7,1.5,1.5v8.7C119.5,98.7,118.8,99.4,118,99.4z"/>
<path class="st5" d="M174.7,144.6H166c-0.8,0-1.5,0.7-1.5,1.5v26.4H138c-0.8,0-1.5,0.7-1.5,1.5v8.7c0,0.8,0.7,1.5,1.5,1.5h36.6
	c0.8,0,1.5-0.7,1.5-1.5v-36.6C176.2,145.2,175.5,144.6,174.7,144.6z"/>
<path id="AnimeLib" class="st6" d="M128.3,110.7c1.7,0,3.4,0,5,0c1.8,0,2.6,0.6,3.3,2.3c1.8,4.8,3.5,9.7,5.3,14.5
	c3.7,10.2,7.4,20.4,11.1,30.6c0.2,0.4,0.3,0.9,0.5,1.3c0.3,1.2-0.2,2.1-1.4,2.1c-3.1,0.1-6.1,0-9.2,0c-1.1,0-1.7-0.8-2.1-1.8
	c-0.8-2.1-1.6-4.2-2.4-6.4c-0.2-0.6-0.5-0.8-1.1-0.8c-6,0-12,0-18,0c-0.6,0-0.9,0.2-1.1,0.8c-0.8,2.2-1.6,4.4-2.4,6.6
	c-0.4,1-1.1,1.6-2.2,1.6c-3,0-6,0-9,0c-1.4,0-2-1.1-1.5-2.5c1.7-4.7,3.5-9.4,5.2-14.2c3.9-10.5,7.7-21.1,11.6-31.6
	c0.8-2.2,1.4-2.6,3.7-2.6C125.1,110.7,126.7,110.7,128.3,110.7z M121.5,142.2c4.6,0,9,0,13.6,0c-2.3-6.4-4.5-12.7-6.7-18.9
	c-0.1,0-0.1,0-0.2,0C125.9,129.5,123.7,135.8,121.5,142.2z"/>
</svg>
