<?xml version="1.0" encoding="utf-8"?>
<!-- Generator: Adobe Illustrator 26.0.3, SVG Export Plug-In . SVG Version: 6.00 Build 0)  -->
<svg version="1.1" id="Layer_1" xmlns="http://www.w3.org/2000/svg" xmlns:xlink="http://www.w3.org/1999/xlink" x="0px" y="0px"
	 viewBox="0 0 256 256" style="enable-background:new 0 0 256 256;" xml:space="preserve">
<style type="text/css">
	.st0{fill-rule:evenodd;clip-rule:evenodd;fill:url(#SVGID_1_);}
	
		.st1{fill-rule:evenodd;clip-rule:evenodd;fill:url(#SVGID_00000121271869461229640710000007793088893771293625_);filter:url(#Adobe_OpacityMaskFilter);}
	.st2{mask:url(#mask0_501_11930_00000081649918554152100850000016654729337992308386_);}
	.st3{fill-rule:evenodd;clip-rule:evenodd;fill:#A6A1A1;}
	.st4{fill-rule:evenodd;clip-rule:evenodd;fill:url(#SVGID_00000031927307050975074990000012574724423310362284_);}
	.st5{fill-rule:evenodd;clip-rule:evenodd;fill:url(#SVGID_00000031168026974739075040000014141469127374030778_);}
	.st6{fill-rule:evenodd;clip-rule:evenodd;fill:url(#SVGID_00000025442227716438635860000010881632083557658804_);}
</style>
<linearGradient id="SVGID_1_" gradientUnits="userSpaceOnUse" x1="17.455" y1="41.7135" x2="229.4639" y2="181.1363">
	<stop  offset="0" style="stop-color:#999999"/>
	<stop  offset="1" style="stop-color:#808080"/>
</linearGradient>
<path class="st0" d="M104.4,42.4c-4.4-5.3-10.9-8.4-17.8-8.4H29c-6.6,0-12,5.4-12,12v12.1v10.1V160c0,6.6,5.4,12,12,12h200
	c6.6,0,12-5.4,12-12V70.1c0-6.6-5.4-12-12-12H117.4L104.4,42.4z"/>
<defs>
	<filter id="Adobe_OpacityMaskFilter" filterUnits="userSpaceOnUse" x="17" y="62" width="224" height="110">
		<feColorMatrix  type="matrix" values="1 0 0 0 0  0 1 0 0 0  0 0 1 0 0  0 0 0 1 0"/>
	</filter>
</defs>
<mask maskUnits="userSpaceOnUse" x="17" y="62" width="224" height="110" id="mask0_501_11930_00000081649918554152100850000016654729337992308386_">
	
		<linearGradient id="SVGID_00000007409489485374699950000009598294275972231326_" gradientUnits="userSpaceOnUse" x1="32.5816" y1="239.5494" x2="213.3495" y2="58.4074" gradientTransform="matrix(1 0 0 -1 0 258)">
		<stop  offset="0" style="stop-color:#05815D"/>
		<stop  offset="1" style="stop-color:#0C575F"/>
	</linearGradient>
	
		<path style="fill-rule:evenodd;clip-rule:evenodd;fill:url(#SVGID_00000007409489485374699950000009598294275972231326_);filter:url(#Adobe_OpacityMaskFilter);" d="
		M104.4,42.4c-4.4-5.3-10.9-8.4-17.8-8.4H29c-6.6,0-12,5.4-12,12v12.1v10.1V160c0,6.6,5.4,12,12,12h200c6.6,0,12-5.4,12-12V70.1
		c0-6.6-5.4-12-12-12H117.4L104.4,42.4z"/>
</mask>
<g class="st2">
	<g>
		<path class="st3" d="M92.8,74c5,0,9.8-1.6,13.8-4.6l9.9-7.4H229c6.6,0,12,5.4,12,12v34v52c0,6.6-5.4,12-12,12H29
			c-6.6,0-12-5.4-12-12v-52V86c0-6.6,5.4-12,12-12h58H92.8z"/>
	</g>
</g>
<linearGradient id="SVGID_00000064352038741043935360000011242152494172369304_" gradientUnits="userSpaceOnUse" x1="26.2091" y1="68.4019" x2="237.2998" y2="207.2209">
	<stop  offset="0" style="stop-color:#F5F5F5"/>
	<stop  offset="1" style="stop-color:#D9D9D9"/>
</linearGradient>
<path style="fill-rule:evenodd;clip-rule:evenodd;fill:url(#SVGID_00000064352038741043935360000011242152494172369304_);" d="
	M92.8,74c5,0,9.8-1.6,13.8-4.6l9.9-7.4H229c6.6,0,12,5.4,12,12v34v90c0,6.6-5.4,12-12,12H29c-6.6,0-12-5.4-12-12v-90V86
	c0-6.6,5.4-12,12-12h58H92.8z"/>
<linearGradient id="SVGID_00000028307742814659634060000007462143039835655555_" gradientUnits="userSpaceOnUse" x1="17" y1="202" x2="241" y2="202">
	<stop  offset="0" style="stop-color:#999999"/>
	<stop  offset="1" style="stop-color:#808080"/>
</linearGradient>
<path style="fill-rule:evenodd;clip-rule:evenodd;fill:url(#SVGID_00000028307742814659634060000007462143039835655555_);" d="
	M17,194v4c0,6.6,5.4,12,12,12h200c6.6,0,12-5.4,12-12v-4c0,6.6-5.4,12-12,12H29C22.4,206,17,200.6,17,194z"/>
<linearGradient id="SVGID_00000105396675739067654290000013223283800968861843_" gradientUnits="userSpaceOnUse" x1="17" y1="76" x2="241" y2="76">
	<stop  offset="0" style="stop-color:#CCCCCC"/>
	<stop  offset="1" style="stop-color:#B3B3B3"/>
</linearGradient>
<path style="fill-rule:evenodd;clip-rule:evenodd;fill:url(#SVGID_00000105396675739067654290000013223283800968861843_);" d="
	M106.6,69.4c-4,3-8.8,4.6-13.8,4.6H87H29c-6.6,0-12,5.4-12,12v4c0-6.6,5.4-12,12-12h58h5.8c5,0,9.8-1.6,13.8-4.6l9.9-7.4H229
	c6.6,0,12,5.4,12,12v-4c0-6.6-5.4-12-12-12H116.5L106.6,69.4z"/>
<g>
	<path d="M142.6,140.4c-2.4,0-3.8-0.2-5.1,0c-13.9,2-27.1-1.2-40.3-5.4c-8-2.5-16.1-4.9-24.8-7.6c0-1.1-0.2-2.9,0.1-4.7
		c0.2-1,1.1-2.4,2-2.6c15.4-3.9,30.8-7.9,46.3-11.5c10.7-2.5,20.9,0.2,31,3.4c6.7,2.1,13.4,4.3,20.2,6.1c2.3,0.6,4.9,0.7,7.2,0.3
		c7.1-1.2,5.3-0.9,8.1,4.4c0.3,0.5,0.4,1.1,0.8,2c-2.6,0.5-5.1,0.9-7.5,1.4c-6.3,1.2-12.1,3.3-15.6,9.3c-0.6,1-1.1,2-1.4,3.1
		c-1.6,6.1-0.9,7.5,6.2,11.8c-6.2,1.5-7.7,6.5-9.5,11.4c-1.5,4.2-3.3,8.4-5.3,12.5c-0.8,1.7-2.4,2.9-3.6,4.4
		c-0.4-0.1-0.9-0.3-1.3-0.4c0.3-4.2,0.2-8.4,0.9-12.5c1-5.7,2.7-11.3,4-16.9c0.5-2.3,0.9-4.6,1-6.9c0.1-1-0.6-2.8-1.2-2.9
		c-1-0.1-2.5,0.4-3.3,1.2c-3.7,3.6-7.2,7.6-11,11.2c-12.5,11.8-26.4,21.2-43.6,24.7c-7.1,1.5-14.1,1.5-20.7-2
		c-9.8-5.3-12.2-20.4-4.4-27.4c4.4-3.9,11.8-4.1,16-0.5c2.3,2,2.9,4.5,1.7,7.2c-1,2.2-2.8,3.8-5.5,3.2c-3-0.7-3.8-2.9-3.6-5.7
		c-5.1,0-7.3,6.3-6.2,10.1c2,6.9,9.3,10.7,18.3,9.7c11.3-1.3,21.2-5.9,30.2-12.4c5.9-4.2,11.1-9.4,16.6-14.2
		C140.7,143.3,141.3,142.2,142.6,140.4z M165.5,125.4c0.1-0.5,0.2-1.1,0.3-1.6c-8.8-2.7-17.5-5.5-26.6-8.3
		c-0.3,8.2-2.7,11.6-8.3,11.4c-2.6-0.1-5.9-0.7-7.6-2.3c-1.8-1.8-2.2-5.1-3.4-8.3c-10.4,2.6-21.4,5.3-33.1,8.2
		C113.4,134.7,139.4,138.7,165.5,125.4z"/>
	<path d="M73.2,117.2c0.2-3.7,0.4-6.4,0.6-9.5c2.2-0.2,4.5,0,6.5-0.6c8.2-2.3,16.4-4.6,24.5-7.2c17.2-5.7,34.1-4.8,51.1,0.8
		c6.9,2.3,14,3.8,21,5.5c1.3,0.3,2.8,0.1,4.2,0c5.2-0.3,5.2-0.4,7.3,5.5c-2,0.5-3.9,1.1-5.8,1.4c-8.1,1-15.5-1.5-23-3.9
		c-12.1-3.8-24.5-6.8-37.2-5c-8.7,1.3-17.2,4.3-25.7,6.5C89.1,112.8,81.5,114.9,73.2,117.2z"/>
</g>
</svg>
