<?xml version="1.0" encoding="utf-8"?>
<!-- Generator: Adobe Illustrator 26.0.3, SVG Export Plug-In . SVG Version: 6.00 Build 0)  -->
<svg version="1.1" id="Layer_1" xmlns="http://www.w3.org/2000/svg" xmlns:xlink="http://www.w3.org/1999/xlink" x="0px" y="0px"
	 viewBox="0 0 256 256" style="enable-background:new 0 0 256 256;" xml:space="preserve">
<style type="text/css">
	.st0{fill-rule:evenodd;clip-rule:evenodd;fill:url(#SVGID_1_);}
	.st1{fill-rule:evenodd;clip-rule:evenodd;fill:#A6A1A1;}
	.st2{fill-rule:evenodd;clip-rule:evenodd;fill:#20232A;}
	.st3{fill-rule:evenodd;clip-rule:evenodd;fill:url(#SVGID_00000151522437423523157700000013584636501892241797_);}
	.st4{fill-rule:evenodd;clip-rule:evenodd;fill:url(#SVGID_00000166671173962634676090000010250175842070634400_);}
	.st5{fill:#FFFFFF;}
	.st6{fill:#FF0048;}
</style>
<linearGradient id="SVGID_1_" gradientUnits="userSpaceOnUse" x1="17" y1="155" x2="241" y2="155" gradientTransform="matrix(1 0 0 -1 0 258)">
	<stop  offset="0" style="stop-color:#FF0048"/>
	<stop  offset="1" style="stop-color:#E60041"/>
</linearGradient>
<path class="st0" d="M104.4,42.4C100,37.1,93.5,34,86.6,34H29c-6.6,0-12,5.4-12,12v12.1v10.1V160c0,6.6,5.4,12,12,12h200
	c6.6,0,12-5.4,12-12V70.1c0-6.6-5.4-12-12-12H117.4L104.4,42.4z"/>
<g>
	<g>
		<path class="st1" d="M92.8,74c5,0,9.8-1.6,13.8-4.6l9.9-7.4H229c6.6,0,12,5.4,12,12v34v52c0,6.6-5.4,12-12,12H29
			c-6.6,0-12-5.4-12-12v-52V86c0-6.6,5.4-12,12-12h58H92.8z"/>
	</g>
</g>
<path class="st2" d="M92.8,74c5,0,9.8-1.6,13.8-4.6l9.9-7.4H229c6.6,0,12,5.4,12,12v34v90c0,6.6-5.4,12-12,12H29
	c-6.6,0-12-5.4-12-12v-90V86c0-6.6,5.4-12,12-12h58H92.8z"/>
<linearGradient id="SVGID_00000134932514300482544720000008975481948101642415_" gradientUnits="userSpaceOnUse" x1="17" y1="56" x2="241" y2="56" gradientTransform="matrix(1 0 0 -1 0 258)">
	<stop  offset="0" style="stop-color:#FF0048"/>
	<stop  offset="1" style="stop-color:#E60041"/>
</linearGradient>
<path style="fill-rule:evenodd;clip-rule:evenodd;fill:url(#SVGID_00000134932514300482544720000008975481948101642415_);" d="
	M17,194v4c0,6.6,5.4,12,12,12h200c6.6,0,12-5.4,12-12v-4c0,6.6-5.4,12-12,12H29C22.4,206,17,200.6,17,194z"/>
<linearGradient id="SVGID_00000024000267535330847760000012059034785285117060_" gradientUnits="userSpaceOnUse" x1="17" y1="330" x2="241" y2="330" gradientTransform="matrix(1 0 0 1 0 -254)">
	<stop  offset="0" style="stop-color:#3D4250"/>
	<stop  offset="1" style="stop-color:#333742"/>
</linearGradient>
<path style="fill-rule:evenodd;clip-rule:evenodd;fill:url(#SVGID_00000024000267535330847760000012059034785285117060_);" d="
	M106.6,69.4c-4,3-8.8,4.6-13.8,4.6H87H29c-6.6,0-12,5.4-12,12v4c0-6.6,5.4-12,12-12h58h5.8c5,0,9.8-1.6,13.8-4.6l9.9-7.4H229
	c6.6,0,12,5.4,12,12v-4c0-6.6-5.4-12-12-12H116.5L106.6,69.4z"/>
<path class="st5" d="M149.7,110.5h-12c-0.4,0-0.7,0.3-0.7,0.7v18.3c0,0.1-0.1,0.3-0.3,0.3h-17c-0.1,0-0.3-0.1-0.3-0.3v-18.3
	c0-0.4-0.3-0.7-0.7-0.7h-12.2c-0.4,0-0.7,0.3-0.7,0.7V161c0,0.4,0.3,0.8,0.8,0.8h11.9c0.4,0,0.7-0.3,0.7-0.7l-0.1-19
	c0-0.1,0.1-0.3,0.3-0.3l17.2-0.1c0.1,0,0.2,0.1,0.2,0.2V161c0,0.4,0.3,0.7,0.7,0.7h12.2c0.4,0,0.7-0.3,0.7-0.7v-49.9
	C150.4,110.8,150.1,110.5,149.7,110.5z"/>
<path class="st6" d="M117.9,99.4H91.4v26.5c0,0.8-0.7,1.5-1.5,1.5h-8.7c-0.8,0-1.5-0.7-1.5-1.5l0-36.7c0-0.8,0.7-1.5,1.5-1.5h36.7
	c0.8,0,1.5,0.7,1.5,1.5v8.7C119.4,98.7,118.7,99.4,117.9,99.4z"/>
<path class="st6" d="M174.8,144.7h-8.7c-0.8,0-1.5,0.7-1.5,1.5v26.4h-26.4c-0.8,0-1.5,0.7-1.5,1.5v8.7c0,0.8,0.7,1.5,1.5,1.5h36.6
	c0.8,0,1.5-0.7,1.5-1.5v-36.6C176.3,145.4,175.6,144.7,174.8,144.7z"/>
</svg>
