<?xml version="1.0" encoding="utf-8"?>
<!-- Generator: Adobe Illustrator 26.0.3, SVG Export Plug-In . SVG Version: 6.00 Build 0)  -->
<svg version="1.1" id="Layer_1" xmlns="http://www.w3.org/2000/svg" xmlns:xlink="http://www.w3.org/1999/xlink" x="0px" y="0px"
	 viewBox="0 0 256 256" style="enable-background:new 0 0 256 256;" xml:space="preserve">
<style type="text/css">
	.st0{fill-rule:evenodd;clip-rule:evenodd;fill:url(#SVGID_1_);}
	
		.st1{fill-rule:evenodd;clip-rule:evenodd;fill:url(#SVGID_00000147930363050955065130000000860271858412342431_);filter:url(#Adobe_OpacityMaskFilter);}
	.st2{mask:url(#mask0_501_11930_00000081649918554152100850000016654729337992308386_);}
	.st3{fill-rule:evenodd;clip-rule:evenodd;fill:#A6A1A1;}
	.st4{fill-rule:evenodd;clip-rule:evenodd;fill:url(#SVGID_00000147904692984929454880000007800868112643425162_);}
	.st5{fill-rule:evenodd;clip-rule:evenodd;fill:url(#SVGID_00000164495701876964650760000017542886538989712038_);}
	.st6{fill-rule:evenodd;clip-rule:evenodd;fill:url(#SVGID_00000112608960257436951560000017163425853508761476_);}
	.st7{display:none;fill:#3E6EA0;}
	.st8{fill:#FFFFFF;}
</style>
<linearGradient id="SVGID_1_" gradientUnits="userSpaceOnUse" x1="17.455" y1="41.7135" x2="229.4639" y2="181.1363">
	<stop  offset="0" style="stop-color:#2A4A6B"/>
	<stop  offset="1" style="stop-color:#24415E"/>
</linearGradient>
<path class="st0" d="M104.4,42.4c-4.4-5.3-10.9-8.4-17.8-8.4H29c-6.6,0-12,5.4-12,12v12.1v10.1V160c0,6.6,5.4,12,12,12h200
	c6.6,0,12-5.4,12-12V70.1c0-6.6-5.4-12-12-12H117.4L104.4,42.4z"/>
<defs>
	<filter id="Adobe_OpacityMaskFilter" filterUnits="userSpaceOnUse" x="17" y="62" width="224" height="110">
		<feColorMatrix  type="matrix" values="1 0 0 0 0  0 1 0 0 0  0 0 1 0 0  0 0 0 1 0"/>
	</filter>
</defs>
<mask maskUnits="userSpaceOnUse" x="17" y="62" width="224" height="110" id="mask0_501_11930_00000081649918554152100850000016654729337992308386_">
	
		<linearGradient id="SVGID_00000110436135837386242770000001222247454339908245_" gradientUnits="userSpaceOnUse" x1="32.5816" y1="239.5494" x2="213.3495" y2="58.4074" gradientTransform="matrix(1 0 0 -1 0 258)">
		<stop  offset="0" style="stop-color:#05815D"/>
		<stop  offset="1" style="stop-color:#0C575F"/>
	</linearGradient>
	
		<path style="fill-rule:evenodd;clip-rule:evenodd;fill:url(#SVGID_00000110436135837386242770000001222247454339908245_);filter:url(#Adobe_OpacityMaskFilter);" d="
		M104.4,42.4c-4.4-5.3-10.9-8.4-17.8-8.4H29c-6.6,0-12,5.4-12,12v12.1v10.1V160c0,6.6,5.4,12,12,12h200c6.6,0,12-5.4,12-12V70.1
		c0-6.6-5.4-12-12-12H117.4L104.4,42.4z"/>
</mask>
<g class="st2">
	<g>
		<path class="st3" d="M92.8,74c5,0,9.8-1.6,13.8-4.6l9.9-7.4H229c6.6,0,12,5.4,12,12v34v52c0,6.6-5.4,12-12,12H29
			c-6.6,0-12-5.4-12-12v-52V86c0-6.6,5.4-12,12-12h58H92.8z"/>
	</g>
</g>
<linearGradient id="SVGID_00000034049471333134971870000002029005021119621015_" gradientUnits="userSpaceOnUse" x1="26.2091" y1="68.4019" x2="237.2998" y2="207.2209">
	<stop  offset="0" style="stop-color:#3E6EA0"/>
	<stop  offset="1" style="stop-color:#29496B"/>
</linearGradient>
<path style="fill-rule:evenodd;clip-rule:evenodd;fill:url(#SVGID_00000034049471333134971870000002029005021119621015_);" d="
	M92.8,74c5,0,9.8-1.6,13.8-4.6l9.9-7.4H229c6.6,0,12,5.4,12,12v34v90c0,6.6-5.4,12-12,12H29c-6.6,0-12-5.4-12-12v-90V86
	c0-6.6,5.4-12,12-12h58H92.8z"/>
<linearGradient id="SVGID_00000089551935961816432050000006186103193721191557_" gradientUnits="userSpaceOnUse" x1="48.4097" y1="146.2378" x2="208.2691" y2="251.3657">
	<stop  offset="0" style="stop-color:#2A4A6B"/>
	<stop  offset="1" style="stop-color:#1D354D"/>
</linearGradient>
<path style="fill-rule:evenodd;clip-rule:evenodd;fill:url(#SVGID_00000089551935961816432050000006186103193721191557_);" d="
	M17,194v4c0,6.6,5.4,12,12,12h200c6.6,0,12-5.4,12-12v-4c0,6.6-5.4,12-12,12H29C22.4,206,17,200.6,17,194z"/>
<linearGradient id="SVGID_00000094604605620437904150000008068734604485801364_" gradientUnits="userSpaceOnUse" x1="52.4853" y1="28.4457" x2="206.8358" y2="129.9508">
	<stop  offset="0" style="stop-color:#325880"/>
	<stop  offset="1" style="stop-color:#264666"/>
</linearGradient>
<path style="fill-rule:evenodd;clip-rule:evenodd;fill:url(#SVGID_00000094604605620437904150000008068734604485801364_);" d="
	M106.6,69.4c-4,3-8.8,4.6-13.8,4.6H87H29c-6.6,0-12,5.4-12,12v4c0-6.6,5.4-12,12-12h58h5.8c5,0,9.8-1.6,13.8-4.6l9.9-7.4H229
	c6.6,0,12,5.4,12,12v-4c0-6.6-5.4-12-12-12H116.5L106.6,69.4z"/>
<g>
	<path class="st7" d="M63.8,70.9c42.8,0,85.7,0,128.5,0v128.8c-42.8,0-85.7,0-128.5,0V70.9z"/>
	<path class="st8" d="M128.8,104c-1.3,0.6-1.7,2.4-0.7,3.4c1,1.4,3.4,0.9,3.8-0.7C132.6,105,130.5,103.1,128.8,104"/>
	<path class="st8" d="M111.3,105.9c-1.6,0.8-1.6,3.3-0.1,4.3c1.4,1.1,3.8,0.1,4-1.7C115.6,106.5,113,104.7,111.3,105.9"/>
	<path class="st8" d="M143.1,107.5c-1,0.5-1.4,1.9-0.8,2.8c0.7,1.2,2.7,1.1,3.3-0.2C146.5,108.6,144.6,106.6,143.1,107.5"/>
	<path class="st8" d="M138.8,136.8c-9.9,4.7-20.3,8.2-30.3,12.4c-4.4,2-9.4,4.4-11.3,9.1c-1.6,4.5-0.5,10.1,3.1,13.5
		c0.4,0.5,1,0.8,1.7,0.7c6.8,0,13.5,0,20.3,0c-3.9-2-7.4-5.8-7.4-10.4c-0.2-3.3,2.3-5.8,4.8-7.5c4.3-3,9.1-5.3,13.6-8
		c12.7-7.2,24.6-15.7,35.5-25.5c3.7-3.5,7.8-6.9,11-10.8C167.3,120.8,153.6,129.9,138.8,136.8"/>
	<path class="st8" d="M152.3,114.5c-1.8,1.2,0.4,4,2,2.5C155.8,115.8,153.8,113.2,152.3,114.5"/>
	<path class="st8" d="M94.8,119c-2.2,1.2-2,4.6,0.2,5.6c2,1.2,4.8-0.6,4.6-3C99.6,119.3,96.7,117.7,94.8,119"/>
	<path class="st8" d="M85.6,140c-2.1,1.2-2,4.6,0.3,5.6c2,1.1,4.8-0.7,4.6-3C90.5,140.3,87.6,138.7,85.6,140"/>
</g>
</svg>
