<?xml version="1.0" encoding="utf-8"?>
<!-- Generator: Adobe Illustrator 26.0.3, SVG Export Plug-In . SVG Version: 6.00 Build 0)  -->
<svg version="1.1" id="Layer_1" xmlns="http://www.w3.org/2000/svg" xmlns:xlink="http://www.w3.org/1999/xlink" x="0px" y="0px"
	 viewBox="0 0 256 256" style="enable-background:new 0 0 256 256;" xml:space="preserve">
<style type="text/css">
	.st0{fill-rule:evenodd;clip-rule:evenodd;fill:url(#SVGID_1_);}
	
		.st1{fill-rule:evenodd;clip-rule:evenodd;fill:url(#SVGID_00000124121714738279965920000009378727106362087567_);filter:url(#Adobe_OpacityMaskFilter);}
	.st2{mask:url(#mask0_501_11930_00000081649918554152100850000016654729337992308386_);}
	.st3{fill-rule:evenodd;clip-rule:evenodd;fill:#A6A1A1;}
	.st4{fill-rule:evenodd;clip-rule:evenodd;fill:#FAFAFA;}
	.st5{fill-rule:evenodd;clip-rule:evenodd;fill:url(#SVGID_00000030457670304859147850000006630292061013256620_);}
	.st6{fill-rule:evenodd;clip-rule:evenodd;fill:url(#SVGID_00000111157625171013968950000012692377265377412795_);}
	.st7{fill:url(#SVGID_00000119091595963776745200000006021254867483950233_);}
	.st8{fill-rule:evenodd;clip-rule:evenodd;fill:url(#SVGID_00000173872189277363544890000014183148736450908350_);}
	.st9{fill-rule:evenodd;clip-rule:evenodd;fill:#FFFFFF;fill-opacity:0.24;}
	
		.st10{fill-rule:evenodd;clip-rule:evenodd;fill:#FFFFFF;filter:url(#Adobe_OpacityMaskFilter_00000051365062554729766720000012283697953948950183_);}
	.st11{mask:url(#path-9-inside-1_782_18004_00000045598236905330916500000009199838440177891201_);fill:#F3F7FB;}
	.st12{fill-rule:evenodd;clip-rule:evenodd;fill:url(#SVGID_00000086691471508106454330000003162541977910485431_);}
	.st13{fill-rule:evenodd;clip-rule:evenodd;fill:url(#SVGID_00000155112413018951028280000002806927329671550885_);}
</style>
<g>
	<linearGradient id="SVGID_1_" gradientUnits="userSpaceOnUse" x1="17" y1="103" x2="241" y2="103">
		<stop  offset="0" style="stop-color:#B3B3B3"/>
		<stop  offset="1" style="stop-color:#999999"/>
	</linearGradient>
	<path class="st0" d="M104.4,42.4c-4.4-5.3-10.9-8.4-17.8-8.4H29c-6.6,0-12,5.4-12,12v12.1v10.1V160c0,6.6,5.4,12,12,12h200
		c6.6,0,12-5.4,12-12V70.1c0-6.6-5.4-12-12-12H117.4L104.4,42.4z"/>
	<defs>
		<filter id="Adobe_OpacityMaskFilter" filterUnits="userSpaceOnUse" x="17" y="62" width="224" height="110">
			<feColorMatrix  type="matrix" values="1 0 0 0 0  0 1 0 0 0  0 0 1 0 0  0 0 0 1 0"/>
		</filter>
	</defs>
	
		<mask maskUnits="userSpaceOnUse" x="17" y="62" width="224" height="110" id="mask0_501_11930_00000081649918554152100850000016654729337992308386_">
		
			<linearGradient id="SVGID_00000127732468634815712650000015357258912792911759_" gradientUnits="userSpaceOnUse" x1="32.5816" y1="239.5494" x2="213.3495" y2="58.4074" gradientTransform="matrix(1 0 0 -1 0 258)">
			<stop  offset="0" style="stop-color:#05815D"/>
			<stop  offset="1" style="stop-color:#0C575F"/>
		</linearGradient>
		
			<path style="fill-rule:evenodd;clip-rule:evenodd;fill:url(#SVGID_00000127732468634815712650000015357258912792911759_);filter:url(#Adobe_OpacityMaskFilter);" d="
			M104.4,42.4c-4.4-5.3-10.9-8.4-17.8-8.4H29c-6.6,0-12,5.4-12,12v12.1v10.1V160c0,6.6,5.4,12,12,12h200c6.6,0,12-5.4,12-12V70.1
			c0-6.6-5.4-12-12-12H117.4L104.4,42.4z"/>
	</mask>
	<g class="st2">
		<g>
			<path class="st3" d="M92.8,74c5,0,9.8-1.6,13.8-4.6l9.9-7.4H229c6.6,0,12,5.4,12,12v34v52c0,6.6-5.4,12-12,12H29
				c-6.6,0-12-5.4-12-12v-52V86c0-6.6,5.4-12,12-12h58H92.8z"/>
		</g>
	</g>
	<path class="st4" d="M92.8,74c5,0,9.8-1.6,13.8-4.6l9.9-7.4H229c6.6,0,12,5.4,12,12v34v90c0,6.6-5.4,12-12,12H29
		c-6.6,0-12-5.4-12-12v-90V86c0-6.6,5.4-12,12-12h58H92.8z"/>
	
		<linearGradient id="SVGID_00000106145301485263421830000012701631143196080286_" gradientUnits="userSpaceOnUse" x1="17" y1="202" x2="241" y2="202">
		<stop  offset="0" style="stop-color:#B3B3B3"/>
		<stop  offset="1" style="stop-color:#999999"/>
	</linearGradient>
	<path style="fill-rule:evenodd;clip-rule:evenodd;fill:url(#SVGID_00000106145301485263421830000012701631143196080286_);" d="
		M17,194v4c0,6.6,5.4,12,12,12h200c6.6,0,12-5.4,12-12v-4c0,6.6-5.4,12-12,12H29C22.4,206,17,200.6,17,194z"/>
	
		<linearGradient id="SVGID_00000003062759746887073600000010295442629316651682_" gradientUnits="userSpaceOnUse" x1="17" y1="76" x2="241" y2="76">
		<stop  offset="0" style="stop-color:#E6E6E6"/>
		<stop  offset="1" style="stop-color:#CCCCCC"/>
	</linearGradient>
	<path style="fill-rule:evenodd;clip-rule:evenodd;fill:url(#SVGID_00000003062759746887073600000010295442629316651682_);" d="
		M106.6,69.4c-4,3-8.8,4.6-13.8,4.6H87H29c-6.6,0-12,5.4-12,12v4c0-6.6,5.4-12,12-12h58h5.8c5,0,9.8-1.6,13.8-4.6l9.9-7.4H229
		c6.6,0,12,5.4,12,12v-4c0-6.6-5.4-12-12-12H116.5L106.6,69.4z"/>
	<g>
		
			<linearGradient id="SVGID_00000059996179493568799020000016891680668699648384_" gradientUnits="userSpaceOnUse" x1="153.8466" y1="101.5584" x2="144.1409" y2="94.4996" gradientTransform="matrix(1 0 0 -1 0 258)">
			<stop  offset="0" style="stop-color:#C3C6C7"/>
			<stop  offset="1.000000e-04" style="stop-color:#BABFBF"/>
			<stop  offset="0.151" style="stop-color:#C4C4C4"/>
			<stop  offset="0.5208" style="stop-color:#E1E4E3"/>
			<stop  offset="0.9219" style="stop-color:#C8CACB"/>
			<stop  offset="1" style="stop-color:#B8BCBC"/>
		</linearGradient>
		<path style="fill:url(#SVGID_00000059996179493568799020000016891680668699648384_);" d="M163.5,168.7l-24.1-22.3
			c-1.2,1.4-2.6,2.6-4.2,3.5l15.8,28.8C155.7,176.1,159.9,172.7,163.5,168.7z"/>
		
			<radialGradient id="SVGID_00000011021585706177794180000009352521719213627287_" cx="-125.3255" cy="382.9333" r="0.8948" gradientTransform="matrix(60.1528 -36.9787 -45.6422 -74.2454 25120.7637 23938.8613)" gradientUnits="userSpaceOnUse">
			<stop  offset="0" style="stop-color:#CDD1D2"/>
			<stop  offset="1" style="stop-color:#DCE2E2"/>
		</radialGradient>
		<path style="fill-rule:evenodd;clip-rule:evenodd;fill:url(#SVGID_00000011021585706177794180000009352521719213627287_);" d="
			M142.7,139.2l32.3,5.2c0.4-2.5,0.6-5,0.6-7.6c0-26.3-21.3-47.6-47.6-47.6c-20.2,0-37.4,12.5-44.4,30.2l29.5,11.5
			c2.2-5.8,7.8-10,14.5-10c8.5,0,15.4,6.9,15.4,15.4C143,137.4,142.9,138.3,142.7,139.2z M80.4,136.9c0,11.2,3.8,21.4,10.3,29.6
			l25.2-20c-2.3-2.7-3.7-6.2-3.7-10c0-1.3,0.2-2.5,0.5-3.7l-30.2-9.5C81,127.6,80.4,132.1,80.4,136.9z"/>
		<path class="st9" d="M143,136.5c0,8.5-6.9,15.4-15.4,15.4c-8.5,0-15.4-6.9-15.4-15.4c0-8.5,6.9-15.4,15.4-15.4
			C136.1,121,143,127.9,143,136.5z M127.6,142.2c2.9,0,5.3-2.4,5.3-5.3c0-2.9-2.4-5.3-5.3-5.3s-5.3,2.4-5.3,5.3
			C122.3,139.8,124.6,142.2,127.6,142.2z"/>
		<defs>
			
				<filter id="Adobe_OpacityMaskFilter_00000037660027195528683890000001839283442216111003_" filterUnits="userSpaceOnUse" x="114.6" y="123.9" width="26" height="26">
				<feColorMatrix  type="matrix" values="1 0 0 0 0  0 1 0 0 0  0 0 1 0 0  0 0 0 1 0"/>
			</filter>
		</defs>
		
			<mask maskUnits="userSpaceOnUse" x="114.6" y="123.9" width="26" height="26" id="path-9-inside-1_782_18004_00000045598236905330916500000009199838440177891201_">
			
				<path style="fill-rule:evenodd;clip-rule:evenodd;fill:#FFFFFF;filter:url(#Adobe_OpacityMaskFilter_00000037660027195528683890000001839283442216111003_);" d="
				M127.6,149.2c6.8,0,12.4-5.5,12.4-12.4c0-6.8-5.5-12.4-12.4-12.4c-6.8,0-12.4,5.5-12.4,12.4C115.2,143.7,120.7,149.2,127.6,149.2
				z M127.6,142.2c2.9,0,5.3-2.4,5.3-5.3c0-2.9-2.4-5.3-5.3-5.3s-5.3,2.4-5.3,5.3C122.3,139.8,124.6,142.2,127.6,142.2z"/>
		</mask>
		<path class="st11" d="M139.3,136.9c0,6.5-5.3,11.7-11.7,11.7v1.3c7.2,0,13-5.8,13-13H139.3z M127.6,125.2
			c6.5,0,11.7,5.3,11.7,11.7h1.3c0-7.2-5.8-13-13-13V125.2z M115.8,136.9c0-6.5,5.3-11.7,11.7-11.7v-1.3c-7.2,0-13,5.8-13,13H115.8z
			 M127.6,148.6c-6.5,0-11.7-5.2-11.7-11.7h-1.3c0,7.2,5.8,13,13,13V148.6z M132.2,136.9c0,2.6-2.1,4.7-4.7,4.7v1.3
			c3.3,0,5.9-2.7,5.9-5.9H132.2z M127.6,132.2c2.6,0,4.7,2.1,4.7,4.7h1.3c0-3.3-2.7-5.9-5.9-5.9V132.2z M122.9,136.9
			c0-2.6,2.1-4.7,4.7-4.7V131c-3.3,0-5.9,2.7-5.9,5.9H122.9z M127.6,141.6c-2.6,0-4.7-2.1-4.7-4.7h-1.3c0,3.3,2.7,5.9,5.9,5.9V141.6
			z"/>
		
			<linearGradient id="SVGID_00000138569040548847630930000012707381517127186849_" gradientUnits="userSpaceOnUse" x1="98.5654" y1="133.0557" x2="97.6831" y2="130.8501" gradientTransform="matrix(1 0 0 -1 0 258)">
			<stop  offset="0" style="stop-color:#D2D6D7"/>
			<stop  offset="0.4219" style="stop-color:#F1D5F1"/>
			<stop  offset="0.5052" style="stop-color:#F5D1F3"/>
			<stop  offset="1" style="stop-color:#D0D4D5"/>
		</linearGradient>
		<path style="fill-rule:evenodd;clip-rule:evenodd;fill:url(#SVGID_00000138569040548847630930000012707381517127186849_);" d="
			M112.6,132.7l-30.2-9.5c0.4-1.3,0.8-2.5,1.3-3.7l29.5,11.5C112.9,131.6,112.7,132.1,112.6,132.7z"/>
		
			<linearGradient id="SVGID_00000010293301731880553840000003724696484723888033_" gradientUnits="userSpaceOnUse" x1="107.9272" y1="88.2751" x2="204.1027" y2="112.9816" gradientTransform="matrix(1 0 0 -1 0 258)">
			<stop  offset="0" style="stop-color:#B2B4B5"/>
			<stop  offset="1" style="stop-color:#C0C7C7"/>
		</linearGradient>
		<path style="fill-rule:evenodd;clip-rule:evenodd;fill:url(#SVGID_00000010293301731880553840000003724696484723888033_);" d="
			M175,144.5l-32.3-5.2c-0.5,2.7-1.7,5.1-3.4,7.1l24.1,22.3C169.5,162,173.6,153.7,175,144.5z M150.9,178.7l-15.8-28.8
			c-2.2,1.3-4.8,2-7.6,2c-4.7,0-8.9-2.1-11.7-5.4l-25.2,20c8.7,11,22.2,18.1,37.4,18.1C136.3,184.5,144.1,182.4,150.9,178.7z"/>
	</g>
</g>
</svg>
