<?xml version="1.0" encoding="utf-8"?>
<!-- Generator: Adobe Illustrator 26.0.3, SVG Export Plug-In . SVG Version: 6.00 Build 0)  -->
<svg version="1.1" id="Layer_1" xmlns="http://www.w3.org/2000/svg" xmlns:xlink="http://www.w3.org/1999/xlink" x="0px" y="0px"
	 viewBox="0 0 256 256" style="enable-background:new 0 0 256 256;" xml:space="preserve">
<style type="text/css">
	.st0{fill-rule:evenodd;clip-rule:evenodd;fill:#1667B8;}
	.st1{fill-rule:evenodd;clip-rule:evenodd;fill:url(#SVGID_1_);filter:url(#Adobe_OpacityMaskFilter);}
	.st2{mask:url(#mask0_501_11930_00000081649918554152100850000016654729337992308386_);}
	.st3{fill-rule:evenodd;clip-rule:evenodd;fill:#A6A1A1;}
	.st4{fill-rule:evenodd;clip-rule:evenodd;fill:#FAFAFA;}
	.st5{fill-rule:evenodd;clip-rule:evenodd;fill:#1976D2;}
	.st6{fill:#1976D2;}
</style>
<path class="st0" d="M104.4,42.4c-4.4-5.3-10.9-8.4-17.8-8.4H29c-6.6,0-12,5.4-12,12v12.1v10.1V160c0,6.6,5.4,12,12,12h200
	c6.6,0,12-5.4,12-12V70.1c0-6.6-5.4-12-12-12H117.4L104.4,42.4z"/>
<defs>
	<filter id="Adobe_OpacityMaskFilter" filterUnits="userSpaceOnUse" x="17" y="62" width="224" height="110">
		<feColorMatrix  type="matrix" values="1 0 0 0 0  0 1 0 0 0  0 0 1 0 0  0 0 0 1 0"/>
	</filter>
</defs>
<mask maskUnits="userSpaceOnUse" x="17" y="62" width="224" height="110" id="mask0_501_11930_00000081649918554152100850000016654729337992308386_">
	
		<linearGradient id="SVGID_1_" gradientUnits="userSpaceOnUse" x1="32.5816" y1="239.5494" x2="213.3495" y2="58.4074" gradientTransform="matrix(1 0 0 -1 0 258)">
		<stop  offset="0" style="stop-color:#05815D"/>
		<stop  offset="1" style="stop-color:#0C575F"/>
	</linearGradient>
	<path class="st1" d="M104.4,42.4c-4.4-5.3-10.9-8.4-17.8-8.4H29c-6.6,0-12,5.4-12,12v12.1v10.1V160c0,6.6,5.4,12,12,12h200
		c6.6,0,12-5.4,12-12V70.1c0-6.6-5.4-12-12-12H117.4L104.4,42.4z"/>
</mask>
<g class="st2">
	<g>
		<path class="st3" d="M92.8,74c5,0,9.8-1.6,13.8-4.6l9.9-7.4H229c6.6,0,12,5.4,12,12v34v52c0,6.6-5.4,12-12,12H29
			c-6.6,0-12-5.4-12-12v-52V86c0-6.6,5.4-12,12-12h58H92.8z"/>
	</g>
</g>
<path class="st4" d="M92.8,74c5,0,9.8-1.6,13.8-4.6l9.9-7.4H229c6.6,0,12,5.4,12,12v34v90c0,6.6-5.4,12-12,12H29
	c-6.6,0-12-5.4-12-12v-90V86c0-6.6,5.4-12,12-12h58H92.8z"/>
<path class="st0" d="M17,194v4c0,6.6,5.4,12,12,12h200c6.6,0,12-5.4,12-12v-4c0,6.6-5.4,12-12,12H29C22.4,206,17,200.6,17,194z"/>
<path class="st5" d="M106.6,69.4c-4,3-8.8,4.6-13.8,4.6H87H29c-6.6,0-12,5.4-12,12v4c0-6.6,5.4-12,12-12h58h5.8
	c5,0,9.8-1.6,13.8-4.6l9.9-7.4H229c6.6,0,12,5.4,12,12v-4c0-6.6-5.4-12-12-12H116.5L106.6,69.4z"/>
<path class="st6" d="M232.9,166.3c-2.6-5.3-5.3-10.5-8.2-15.6c-3.6-6.3-7.5-12.4-11.2-18.6c-0.5-0.8-1.1-1.7-1.2-2.6
	c-0.2-6.2-1.2-12.3-3-18.2c-1.5-4.7-3.9-8.7-7.8-11.8c-2.5-2-5-1.9-7.2,0.5c-2.5,2.7-4.9,5.4-7.2,8.3c-1.9,2.4-3.6,4.9-5.1,7.5
	c-0.8,1.3-1.6,1.9-3.2,1.9c-6.6-0.1-13.2-0.1-19.8,0c-1.4,0-2.1-0.5-2.8-1.6c-3.4-6.2-7.9-11.5-12.8-16.5c-1.9-1.9-4.3-2-6.4-0.5
	c-3.1,2.3-5.4,5.2-6.9,8.7c-2.8,6.5-4.1,13.4-4.2,20.5c0,1.3-0.3,2.4-1.1,3.5c-1.3,1.9-2.6,3.8-3.7,5.8c-2.7,4.5-5.5,9-8,13.6
	c-3.4,6.3-6.7,12.6-9.8,19c-2.5,5.3-4.9,10.7-7.1,16.1c-2,4.9-3.8,10-5.6,15c-0.6,1.6-1.1,3.2-1.6,4.7c49.6,0,99.2,0,148.8,0
	c1.9-2.1,3.1-4.9,3.1-8c0-5,0-10,0-15c-0.3-0.4-0.6-0.7-0.7-1.1C237.8,176.7,235.5,171.4,232.9,166.3z M149.4,155.1
	c-3.3,1.7-6.8,1.5-9.9-0.6c-5.7-3.9-6-11.7-0.4-16.4c1.6-1.3,3.6-1.9,5.7-1.9c1.3,0,2.4,1,2.6,2.2c0.2,1,0.3,2,0.5,2.9
	c0.2,1,0.8,1.7,1.9,1.8c0.8,0,1.6,0.2,2.4,0.3c1.7,0.3,2.7,1.5,2.6,4C154.5,150.5,152.7,153.4,149.4,155.1z M177.4,159.4
	c-1.4,1.7-3,3.4-4.6,4.9c-2.5,2.3-4.9,2.3-7.5,0c-1.7-1.5-3.2-3.3-4.8-5c-2.9-3.2-0.6-7.4,2.6-8.6c0.5-0.2,1.1,0,1.6,0
	c2.9-0.1,5.7-0.1,8.6-0.2c3-0.1,5.6,2.4,5.6,6.4C178.7,157.4,178.2,158.5,177.4,159.4z M197.2,155.3c-3.8,1.6-7.5,1-10.6-1.8
	c-2.9-2.7-3.9-6.1-2.8-9.9c1.2-4.3,4.2-6.8,8.6-7.5c1.2-0.2,2.5,0.5,2.8,1.6c0.3,1.3,0.6,2.6,0.7,4c0.1,1.1,0.3,1.6,1.5,1.5
	c1.1,0,2.3,0.2,3.4,0.4c1.6,0.4,2.2,1.3,2.2,3.2C202.8,150.6,201,153.7,197.2,155.3z"/>
</svg>
