<?xml version="1.0" encoding="utf-8"?>
<!-- Generator: Adobe Illustrator 26.0.3, SVG Export Plug-In . SVG Version: 6.00 Build 0)  -->
<svg version="1.1" id="Layer_1" xmlns="http://www.w3.org/2000/svg" xmlns:xlink="http://www.w3.org/1999/xlink" x="0px" y="0px"
	 viewBox="0 0 256 256" style="enable-background:new 0 0 256 256;" xml:space="preserve">
<style type="text/css">
	.st0{fill-rule:evenodd;clip-rule:evenodd;fill:url(#SVGID_1_);}
	.st1{fill-rule:evenodd;clip-rule:evenodd;fill:#A6A1A1;}
	.st2{fill-rule:evenodd;clip-rule:evenodd;fill:#20232A;}
	.st3{fill-rule:evenodd;clip-rule:evenodd;fill:url(#SVGID_00000161613629577702210710000011778626018198123906_);}
	.st4{fill-rule:evenodd;clip-rule:evenodd;fill:url(#SVGID_00000126297600915147498090000014667141325660845229_);}
	.st5{fill:#FFFFFF;}
	.st6{fill:#FF9100;}
</style>
<linearGradient id="SVGID_1_" gradientUnits="userSpaceOnUse" x1="17" y1="153" x2="241" y2="153" gradientTransform="matrix(1 0 0 -1 0 256)">
	<stop  offset="0" style="stop-color:#FF9100"/>
	<stop  offset="1" style="stop-color:#E68200"/>
</linearGradient>
<path class="st0" d="M104.4,42.4C100,37.1,93.5,34,86.6,34H29c-6.6,0-12,5.4-12,12v12.1v10.1V160c0,6.6,5.4,12,12,12h200
	c6.6,0,12-5.4,12-12V70.1c0-6.6-5.4-12-12-12H117.4L104.4,42.4z"/>
<g>
	<g>
		<path class="st1" d="M92.8,74c5,0,9.8-1.6,13.8-4.6l9.9-7.4H229c6.6,0,12,5.4,12,12v34v52c0,6.6-5.4,12-12,12H29
			c-6.6,0-12-5.4-12-12v-52V86c0-6.6,5.4-12,12-12h58H92.8z"/>
	</g>
</g>
<path class="st2" d="M92.8,74c5,0,9.8-1.6,13.8-4.6l9.9-7.4H229c6.6,0,12,5.4,12,12v34v90c0,6.6-5.4,12-12,12H29
	c-6.6,0-12-5.4-12-12v-90V86c0-6.6,5.4-12,12-12h58H92.8z"/>
<linearGradient id="SVGID_00000150816905800618749990000007305347770842771089_" gradientUnits="userSpaceOnUse" x1="17" y1="54" x2="241" y2="54" gradientTransform="matrix(1 0 0 -1 0 256)">
	<stop  offset="0" style="stop-color:#FF9100"/>
	<stop  offset="1" style="stop-color:#E68200"/>
</linearGradient>
<path style="fill-rule:evenodd;clip-rule:evenodd;fill:url(#SVGID_00000150816905800618749990000007305347770842771089_);" d="
	M17,194v4c0,6.6,5.4,12,12,12h200c6.6,0,12-5.4,12-12v-4c0,6.6-5.4,12-12,12H29C22.4,206,17,200.6,17,194z"/>
<linearGradient id="SVGID_00000096054624521790608220000000275362321011609984_" gradientUnits="userSpaceOnUse" x1="17" y1="74" x2="241" y2="74" gradientTransform="matrix(1 0 0 1 0 2)">
	<stop  offset="0" style="stop-color:#3D4250"/>
	<stop  offset="1" style="stop-color:#333742"/>
</linearGradient>
<path style="fill-rule:evenodd;clip-rule:evenodd;fill:url(#SVGID_00000096054624521790608220000000275362321011609984_);" d="
	M106.6,69.4c-4,3-8.8,4.6-13.8,4.6H87H29c-6.6,0-12,5.4-12,12v4c0-6.6,5.4-12,12-12h58h5.8c5,0,9.8-1.6,13.8-4.6l9.9-7.4H229
	c6.6,0,12,5.4,12,12v-4c0-6.6-5.4-12-12-12H116.5L106.6,69.4z"/>
<g>
	<path class="st5" d="M151.9,160.9h-10.3c-0.5,0-0.9-0.4-0.9-0.9l-0.1-26.5c0-0.3-0.4-0.4-0.5-0.1l-8.2,15.3
		c-0.2,0.3-0.5,0.5-0.8,0.5h-6.2c-0.3,0-0.7-0.2-0.8-0.5l-8.2-15.3c-0.1-0.3-0.5-0.2-0.5,0.1V160c0,0.5-0.4,0.9-0.9,0.9h-11
		c-0.5,0-0.9-0.4-0.9-0.9v-49c0-0.5,0.4-0.9,0.9-0.9h10.3c0.3,0,0.6,0.2,0.8,0.5l13,23.3c0.1,0.1,0.2,0.1,0.3,0l13.3-23.3
		c0.2-0.3,0.5-0.5,0.8-0.5h9.9c0.5,0,0.9,0.4,0.9,0.9v49C152.9,160.5,152.5,160.9,151.9,160.9z"/>
	<path class="st6" d="M117.9,99.4H91.4v26.5c0,0.8-0.7,1.5-1.5,1.5h-8.7c-0.8,0-1.5-0.7-1.5-1.5l0-36.7c0-0.8,0.7-1.5,1.5-1.5h36.7
		c0.8,0,1.5,0.7,1.5,1.5v8.7C119.4,98.7,118.7,99.4,117.9,99.4z"/>
	<path class="st6" d="M174.8,144.6h-8.7c-0.8,0-1.5,0.7-1.5,1.5v26.4h-26.4c-0.8,0-1.5,0.7-1.5,1.5v8.7c0,0.8,0.7,1.5,1.5,1.5h36.6
		c0.8,0,1.5-0.7,1.5-1.5v-36.6C176.3,145.3,175.6,144.6,174.8,144.6z"/>
</g>
</svg>
