<?xml version="1.0" encoding="utf-8"?>
<!-- Generator: Adobe Illustrator 26.0.3, SVG Export Plug-In . SVG Version: 6.00 Build 0)  -->
<svg version="1.1" id="Layer_1" xmlns="http://www.w3.org/2000/svg" xmlns:xlink="http://www.w3.org/1999/xlink" x="0px" y="0px"
	 viewBox="0 0 256 256" style="enable-background:new 0 0 256 256;" xml:space="preserve">
<style type="text/css">
	.st0{fill-rule:evenodd;clip-rule:evenodd;fill:url(#SVGID_1_);}
	
		.st1{fill-rule:evenodd;clip-rule:evenodd;fill:url(#SVGID_00000079485812925845529510000001514208944394865585_);filter:url(#Adobe_OpacityMaskFilter);}
	.st2{mask:url(#mask0_501_11930_00000081649918554152100850000016654729337992308386_);}
	.st3{fill-rule:evenodd;clip-rule:evenodd;fill:#A6A1A1;}
	.st4{fill-rule:evenodd;clip-rule:evenodd;fill:#F2FAFF;}
	.st5{fill-rule:evenodd;clip-rule:evenodd;fill:url(#SVGID_00000158002707909685364810000011662056054277416891_);}
	.st6{fill-rule:evenodd;clip-rule:evenodd;fill:#0082EC;}
	.st7{fill:#0D0D0D;}
</style>
<linearGradient id="SVGID_1_" gradientUnits="userSpaceOnUse" x1="16.3682" y1="102.5369" x2="241.614" y2="105.0508">
	<stop  offset="0" style="stop-color:#0058A0"/>
	<stop  offset="1" style="stop-color:#004985"/>
</linearGradient>
<path class="st0" d="M104.4,42.4c-4.4-5.3-10.9-8.4-17.8-8.4H29c-6.6,0-12,5.4-12,12v12.1v10.1V160c0,6.6,5.4,12,12,12h200
	c6.6,0,12-5.4,12-12V70.1c0-6.6-5.4-12-12-12H117.4L104.4,42.4z"/>
<defs>
	<filter id="Adobe_OpacityMaskFilter" filterUnits="userSpaceOnUse" x="17" y="62" width="224" height="110">
		<feColorMatrix  type="matrix" values="1 0 0 0 0  0 1 0 0 0  0 0 1 0 0  0 0 0 1 0"/>
	</filter>
</defs>
<mask maskUnits="userSpaceOnUse" x="17" y="62" width="224" height="110" id="mask0_501_11930_00000081649918554152100850000016654729337992308386_">
	
		<linearGradient id="SVGID_00000066485718145349492770000001833648402220475059_" gradientUnits="userSpaceOnUse" x1="32.5816" y1="239.5494" x2="213.3495" y2="58.4074" gradientTransform="matrix(1 0 0 -1 0 258)">
		<stop  offset="0" style="stop-color:#05815D"/>
		<stop  offset="1" style="stop-color:#0C575F"/>
	</linearGradient>
	
		<path style="fill-rule:evenodd;clip-rule:evenodd;fill:url(#SVGID_00000066485718145349492770000001833648402220475059_);filter:url(#Adobe_OpacityMaskFilter);" d="
		M104.4,42.4c-4.4-5.3-10.9-8.4-17.8-8.4H29c-6.6,0-12,5.4-12,12v12.1v10.1V160c0,6.6,5.4,12,12,12h200c6.6,0,12-5.4,12-12V70.1
		c0-6.6-5.4-12-12-12H117.4L104.4,42.4z"/>
</mask>
<g class="st2">
	<g>
		<path class="st3" d="M92.8,74c5,0,9.8-1.6,13.8-4.6l9.9-7.4H229c6.6,0,12,5.4,12,12v34v52c0,6.6-5.4,12-12,12H29
			c-6.6,0-12-5.4-12-12v-52V86c0-6.6,5.4-12,12-12h58H92.8z"/>
	</g>
</g>
<path class="st4" d="M92.8,74c5,0,9.8-1.6,13.8-4.6l9.9-7.4H229c6.6,0,12,5.4,12,12v34v90c0,6.6-5.4,12-12,12H29
	c-6.6,0-12-5.4-12-12v-90V86c0-6.6,5.4-12,12-12h58H92.8z"/>
<linearGradient id="SVGID_00000029040684206934189700000012796974705720846469_" gradientUnits="userSpaceOnUse" x1="16.9254" y1="57.3174" x2="240.9429" y2="54.8172" gradientTransform="matrix(1 0 0 -1 0 258)">
	<stop  offset="0" style="stop-color:#0058A0"/>
	<stop  offset="1" style="stop-color:#004985"/>
</linearGradient>
<path style="fill-rule:evenodd;clip-rule:evenodd;fill:url(#SVGID_00000029040684206934189700000012796974705720846469_);" d="
	M17,194v4c0,6.6,5.4,12,12,12h200c6.6,0,12-5.4,12-12v-4c0,6.6-5.4,12-12,12H29C22.4,206,17,200.6,17,194z"/>
<path class="st6" d="M106.6,69.4c-4,3-8.8,4.6-13.8,4.6H87H29c-6.6,0-12,5.4-12,12v4c0-6.6,5.4-12,12-12h58h5.8
	c5,0,9.8-1.6,13.8-4.6l9.9-7.4H229c6.6,0,12,5.4,12,12v-4c0-6.6-5.4-12-12-12H116.5L106.6,69.4z"/>
<path class="st7" d="M132,182c-4.3-4.5-8.3-8.7-12.5-13.1c6.9-3,13.4-7.1,18.1-13.4c1.9-2.5,3.4-5.3,5.5-8.7
	c-4.9-1.7-9.2-3.4-13.6-4.5c-5.5-1.4-4.1-1.7-6.2,3.3c-2.6,6.5-5,13.1-8.3,19.3c-4.4,8.5-11.5,12-19.2,10.5
	c-8.1-1.6-14.4-8.7-15.6-17.7c-0.9-7.1,0.5-13.8,3.9-19.2c6.8-11,19.2-13.2,20.7-13.4c1.1-0.1,2.2-0.3,3.3-0.4
	c2.9-0.4,3.2-0.4,3.7-0.6c1.8-0.9,2.3-3.3,2.7-5.2c0.8-3.7,2-7.4,3.1-11.4c-8.3,0.4-16.2,0.9-24.5,1.3c-0.2-5.3-0.5-10.4-0.7-16
	c9,0,17.8,0.1,26.5-0.1c2.6,0,5.2-0.8,7.8-1.1c0.6-0.1,1.5,0,1.9,0.4c3.3,2.7,6.5,5.5,9.4,7.9c-2.9,8.7-5.8,17-8.6,25.4
	c5.9,1.7,11.5,3.2,17.6,5c0-7.2,0-14.3,0-21.5c6,0,11.6,0,17.5,0c-0.7,8.9-1.4,17.4-2.2,25.9c-0.2,1.8,0.1,2.8,1.9,3.6
	c3.9,1.8,7.6,3.9,11.6,6c-1.9,6.1-3.8,12.2-5.7,18.3c-4.2-2.8-8.2-5.4-12.4-8.3C152.4,167,143.5,175.8,132,182z M108.6,140.1
	c-6.6,1.7-11.3,5.3-12.5,8.8c-0.3,0.9-0.9,3.1-0.5,5.5c0.2,1.5,0.7,2.3,1.1,2.7c0.6,0.6,2.7,0.9,3.3,0.5c1.1-0.6,1.7-1.5,2.1-2.2
	C103,153.7,105.5,148,108.6,140.1z"/>
</svg>
