<?xml version="1.0" encoding="utf-8"?>
<!-- Generator: Adobe Illustrator 26.0.3, SVG Export Plug-In . SVG Version: 6.00 Build 0)  -->
<svg version="1.1" id="Layer_1" xmlns="http://www.w3.org/2000/svg" xmlns:xlink="http://www.w3.org/1999/xlink" x="0px" y="0px"
	 viewBox="0 0 256 256" style="enable-background:new 0 0 256 256;" xml:space="preserve">
<style type="text/css">
	.st0{fill-rule:evenodd;clip-rule:evenodd;fill:url(#SVGID_1_);}
	.st1{fill-rule:evenodd;clip-rule:evenodd;fill:#A6A1A1;}
	.st2{fill-rule:evenodd;clip-rule:evenodd;fill:#20232A;}
	.st3{fill-rule:evenodd;clip-rule:evenodd;fill:url(#SVGID_00000179636409243511744810000006391494165837403289_);}
	.st4{fill-rule:evenodd;clip-rule:evenodd;fill:url(#SVGID_00000152964697072155196740000012368096303463812787_);}
	.st5{fill:#FFFFFF;}
	.st6{fill:#2196F3;}
</style>
<linearGradient id="SVGID_1_" gradientUnits="userSpaceOnUse" x1="17" y1="103" x2="241" y2="103">
	<stop  offset="0" style="stop-color:#2196F3"/>
	<stop  offset="1" style="stop-color:#1D86D9"/>
</linearGradient>
<path class="st0" d="M104.4,42.4C100,37.1,93.5,34,86.6,34H29c-6.6,0-12,5.4-12,12v12.1v10.1V160c0,6.6,5.4,12,12,12h200
	c6.6,0,12-5.4,12-12V70.1c0-6.6-5.4-12-12-12H117.4L104.4,42.4z"/>
<g>
	<g>
		<path class="st1" d="M92.8,74c5,0,9.8-1.6,13.8-4.6l9.9-7.4H229c6.6,0,12,5.4,12,12v34v52c0,6.6-5.4,12-12,12H29
			c-6.6,0-12-5.4-12-12v-52V86c0-6.6,5.4-12,12-12h58H92.8z"/>
	</g>
</g>
<path class="st2" d="M92.8,74c5,0,9.8-1.6,13.8-4.6l9.9-7.4H229c6.6,0,12,5.4,12,12v34v90c0,6.6-5.4,12-12,12H29
	c-6.6,0-12-5.4-12-12v-90V86c0-6.6,5.4-12,12-12h58H92.8z"/>
<linearGradient id="SVGID_00000090294045722291354450000001666194839834215307_" gradientUnits="userSpaceOnUse" x1="17" y1="54" x2="241" y2="54" gradientTransform="matrix(1 0 0 -1 0 256)">
	<stop  offset="0" style="stop-color:#2196F3"/>
	<stop  offset="1" style="stop-color:#1D86D9"/>
</linearGradient>
<path style="fill-rule:evenodd;clip-rule:evenodd;fill:url(#SVGID_00000090294045722291354450000001666194839834215307_);" d="
	M17,194v4c0,6.6,5.4,12,12,12h200c6.6,0,12-5.4,12-12v-4c0,6.6-5.4,12-12,12H29C22.4,206,17,200.6,17,194z"/>
<linearGradient id="SVGID_00000175284731622724104470000009388801491974388894_" gradientUnits="userSpaceOnUse" x1="17" y1="74" x2="241" y2="74" gradientTransform="matrix(1 0 0 1 0 2)">
	<stop  offset="0" style="stop-color:#3D4250"/>
	<stop  offset="1" style="stop-color:#333742"/>
</linearGradient>
<path style="fill-rule:evenodd;clip-rule:evenodd;fill:url(#SVGID_00000175284731622724104470000009388801491974388894_);" d="
	M106.6,69.4c-4,3-8.8,4.6-13.8,4.6H87H29c-6.6,0-12,5.4-12,12v4c0-6.6,5.4-12,12-12h58h5.8c5,0,9.8-1.6,13.8-4.6l9.9-7.4H229
	c6.6,0,12,5.4,12,12v-4c0-6.6-5.4-12-12-12H116.5L106.6,69.4z"/>
<g>
	<path id="RanobeLib" class="st5" d="M139.3,141.4c1.5,2.7,3,5.4,4.5,8c1.8,3.2,3.6,6.4,5.3,9.6c0.8,1.4,0.1,2.5-1.5,2.6
		c-3.1,0-6.2,0-9.2,0c-1.7,0-2.5-1-3.2-2.3c-2.1-4-4.2-8.1-6.2-12.1c-0.5-1-1.1-2-1.6-3c-0.2-0.5-0.6-0.7-1.1-0.7
		c-1.9,0-3.8,0-5.7,0c-0.8,0-1,0.3-1,1c0,4.8,0,9.6,0,14.4c0,2-0.6,2.6-2.6,2.6c-2.7,0-5.4,0-8.1,0c-1.7,0-2.4-0.6-2.4-2.3
		c0-15.5,0-30.9,0-46.4c0-1.7,0.6-2.3,2.3-2.3c6.9,0,13.8-0.1,20.8,0.1c4.7,0.1,9.2,1.1,13.1,4.1c3.1,2.4,4.8,5.5,5.4,9.3
		c0.5,3.1,0.4,6.3-0.8,9.3c-1.3,3.3-3.5,5.7-6.6,7.4c-0.4,0.2-0.8,0.4-1.2,0.7C139.5,141.2,139.5,141.3,139.3,141.4z M119.6,133.2
		c3.1,0,6.1,0.1,9.1,0c3.8-0.1,6-2.3,6.1-6c0.1-3.3-1.7-6.2-5.5-6.4c-3.1-0.2-6.3-0.1-9.4-0.1c-0.1,0-0.2,0.1-0.3,0.1
		C119.6,124.9,119.6,129,119.6,133.2z"/>
	<path class="st6" d="M118,99.4H91.4V126c0,0.8-0.7,1.5-1.5,1.5h-8.7c-0.8,0-1.5-0.7-1.5-1.5l0-36.8c0-0.8,0.7-1.5,1.5-1.5H118
		c0.8,0,1.5,0.7,1.5,1.5v8.7C119.5,98.7,118.8,99.4,118,99.4z"/>
	<path class="st6" d="M174.7,144.6H166c-0.8,0-1.5,0.7-1.5,1.5v26.4H138c-0.8,0-1.5,0.7-1.5,1.5v8.7c0,0.8,0.7,1.5,1.5,1.5h36.6
		c0.8,0,1.5-0.7,1.5-1.5v-36.6C176.2,145.2,175.5,144.6,174.7,144.6z"/>
</g>
</svg>
