<?xml version="1.0" encoding="utf-8"?>
<!-- Generator: Adobe Illustrator 26.0.3, SVG Export Plug-In . SVG Version: 6.00 Build 0)  -->
<svg version="1.1" id="Layer_1" xmlns="http://www.w3.org/2000/svg" xmlns:xlink="http://www.w3.org/1999/xlink" x="0px" y="0px"
	 viewBox="0 0 256 256" style="enable-background:new 0 0 256 256;" xml:space="preserve">
<style type="text/css">
	.st0{fill-rule:evenodd;clip-rule:evenodd;fill:url(#SVGID_1_);}
	.st1{fill-rule:evenodd;clip-rule:evenodd;fill:#A6A1A1;}
	.st2{fill-rule:evenodd;clip-rule:evenodd;fill:#20232A;}
	.st3{fill-rule:evenodd;clip-rule:evenodd;fill:url(#SVGID_00000102503057633814035300000000874734284667958658_);}
	.st4{fill-rule:evenodd;clip-rule:evenodd;fill:url(#SVGID_00000045592360359107185350000004999458464416215700_);}
	.st5{fill:#D81B60;}
	.st6{fill:#FFFFFF;}
</style>
<linearGradient id="SVGID_1_" gradientUnits="userSpaceOnUse" x1="17" y1="103" x2="241" y2="103">
	<stop  offset="0" style="stop-color:#D81B60"/>
	<stop  offset="1" style="stop-color:#BD1854"/>
</linearGradient>
<path class="st0" d="M104.4,42.4C100,37.1,93.5,34,86.6,34H29c-6.6,0-12,5.4-12,12v12.1v10.1V160c0,6.6,5.4,12,12,12h200
	c6.6,0,12-5.4,12-12V70.1c0-6.6-5.4-12-12-12H117.4L104.4,42.4z"/>
<g>
	<g>
		<path class="st1" d="M92.8,74c5,0,9.8-1.6,13.8-4.6l9.9-7.4H229c6.6,0,12,5.4,12,12v34v52c0,6.6-5.4,12-12,12H29
			c-6.6,0-12-5.4-12-12v-52V86c0-6.6,5.4-12,12-12h58H92.8z"/>
	</g>
</g>
<path class="st2" d="M92.8,74c5,0,9.8-1.6,13.8-4.6l9.9-7.4H229c6.6,0,12,5.4,12,12v34v90c0,6.6-5.4,12-12,12H29
	c-6.6,0-12-5.4-12-12v-90V86c0-6.6,5.4-12,12-12h58H92.8z"/>
<linearGradient id="SVGID_00000041285530099260452140000014578596434488628414_" gradientUnits="userSpaceOnUse" x1="17" y1="54" x2="241" y2="54" gradientTransform="matrix(1 0 0 -1 0 256)">
	<stop  offset="0" style="stop-color:#D81B60"/>
	<stop  offset="1" style="stop-color:#BD1854"/>
</linearGradient>
<path style="fill-rule:evenodd;clip-rule:evenodd;fill:url(#SVGID_00000041285530099260452140000014578596434488628414_);" d="
	M17,194v4c0,6.6,5.4,12,12,12h200c6.6,0,12-5.4,12-12v-4c0,6.6-5.4,12-12,12H29C22.4,206,17,200.6,17,194z"/>
<linearGradient id="SVGID_00000011735739020740145270000013312564773944861838_" gradientUnits="userSpaceOnUse" x1="17" y1="74" x2="241" y2="74" gradientTransform="matrix(1 0 0 1 0 2)">
	<stop  offset="0" style="stop-color:#3D4250"/>
	<stop  offset="1" style="stop-color:#333742"/>
</linearGradient>
<path style="fill-rule:evenodd;clip-rule:evenodd;fill:url(#SVGID_00000011735739020740145270000013312564773944861838_);" d="
	M106.6,69.4c-4,3-8.8,4.6-13.8,4.6H87H29c-6.6,0-12,5.4-12,12v4c0-6.6,5.4-12,12-12h58h5.8c5,0,9.8-1.6,13.8-4.6l9.9-7.4H229
	c6.6,0,12,5.4,12,12v-4c0-6.6-5.4-12-12-12H116.5L106.6,69.4z"/>
<g>
	<path class="st5" d="M118,99.4H91.4V126c0,0.8-0.7,1.5-1.5,1.5h-8.7c-0.8,0-1.5-0.7-1.5-1.5l0-36.8c0-0.8,0.7-1.5,1.5-1.5H118
		c0.8,0,1.5,0.7,1.5,1.5v8.7C119.5,98.7,118.8,99.4,118,99.4z"/>
	<path class="st5" d="M174.7,144.6H166c-0.8,0-1.5,0.7-1.5,1.5v26.4H138c-0.8,0-1.5,0.7-1.5,1.5v8.7c0,0.8,0.7,1.5,1.5,1.5h36.6
		c0.8,0,1.5-0.7,1.5-1.5v-36.6C176.2,145.2,175.5,144.6,174.7,144.6z"/>
	<path class="st6" d="M112.1,146c1.5,0,3,0,4.5,0c1.1,0,2,0.5,2.5,1.4c1.6,2.6,4,3.8,7,4c2.4,0.2,4.8,0.1,7.1-0.8
		c2.2-0.8,3.4-2.6,2.9-4.6c-0.2-0.8-0.7-1.6-1.3-2.1c-1.9-1.5-4.4-1.9-6.7-2.5c-3.7-1-7.5-1.9-11.2-3c-2.8-0.8-5.2-2.4-7.1-4.6
		c-2.2-2.6-2.8-5.6-2.7-8.8c0.2-6,4.6-10.6,10-12.6c5.4-2,10.9-2.2,16.4-1.1c5.4,1.1,10,3.6,12.9,8.4c0.8,1.3,1.2,2.8,1.5,4.2
		c0.3,1.4-0.4,2-1.8,2c-2.3,0-4.6,0-6.9,0c-0.9,0-1.8,0-2.7-0.1c-0.9,0-1.6-0.4-1.9-1.2c-1.1-2.4-3.2-3.4-5.7-3.7
		c-2.1-0.2-4.2-0.2-6.1,0.8c-2.7,1.4-2.9,5-0.4,6.7c2.1,1.4,4.5,1.8,6.9,2.4c3.5,0.9,7,1.6,10.4,2.6c2.9,0.8,5.5,2.3,7.4,4.6
		c2.2,2.6,2.7,5.6,2.6,8.8c-0.2,5.1-2.9,8.7-7.3,11.3c-3.8,2.3-8,3.2-12.4,3.4c-4.4,0.2-8.7,0-12.9-1.4c-3.9-1.3-7.3-3.5-9.5-7.1
		c-1-1.7-1.6-3.5-1.8-5.5c-0.1-0.9,0.6-1.6,1.7-1.6C109,145.9,110.6,146,112.1,146C112.1,146,112.1,146,112.1,146z"/>
</g>
</svg>
